<?xml version="1.0" standalone="no"?>
<!DOCTYPE svg PUBLIC "-//W3C//DTD SVG 20010904//EN"
 "http://www.w3.org/TR/2001/REC-SVG-20010904/DTD/svg10.dtd">
<svg version="1.0" xmlns="http://www.w3.org/2000/svg"
 width="620.000000pt" height="465.000000pt" viewBox="0 0 620.000000 465.000000"
 preserveAspectRatio="xMidYMid meet">

<g transform="translate(0.000000,465.000000) scale(0.100000,-0.100000)"
fill="#000000" stroke="none">
<path d="M0 3776 c0 -769 2 -875 15 -886 13 -10 19 -10 34 4 10 9 44 23 77 31
60 16 84 35 84 66 0 10 5 21 12 25 25 16 83 15 114 -2 30 -16 34 -16 67 -1 19
9 40 17 46 17 7 0 11 7 9 16 -2 10 3 19 9 21 7 3 13 -1 13 -8 0 -7 18 7 40 31
25 28 40 37 40 27 0 -27 22 -31 42 -7 14 17 16 26 7 36 -12 15 -4 34 15 34 8
0 19 7 26 15 14 17 47 20 52 4 2 -7 19 -7 53 -1 46 9 47 10 15 12 -33 1 -34 2
-11 11 14 5 31 7 38 5 21 -8 43 5 43 25 0 26 45 36 69 15 19 -17 52 -12 50 8
-3 25 2 36 16 36 8 0 15 5 15 11 0 7 -9 9 -23 5 -14 -3 -32 0 -43 8 -17 13
-16 15 20 22 31 5 42 3 52 -10 7 -10 21 -16 31 -14 24 4 30 38 7 38 -10 0 -25
7 -35 16 -14 13 -16 20 -7 40 6 13 15 24 19 24 5 0 6 6 3 14 -5 12 -9 12 -32
0 -31 -16 -33 -15 -25 15 5 18 11 21 30 16 23 -5 24 -5 7 20 -19 29 -34 32
-34 8 0 -15 -2 -15 -9 -4 -6 9 -6 22 0 34 8 14 7 23 -4 35 -9 9 -16 20 -17 24
-3 21 -37 69 -52 74 -10 3 -18 12 -18 19 0 8 -13 22 -30 32 -16 9 -30 25 -30
35 0 26 -35 41 -51 22 -10 -13 -10 -17 1 -24 8 -5 11 -12 7 -16 -9 -10 -47 35
-46 55 0 13 2 12 8 -2 6 -16 9 -17 19 -4 20 24 4 46 -31 43 -18 -2 -22 -1 -9
1 15 3 22 11 22 28 0 13 4 26 10 30 5 3 1 20 -10 41 -21 37 -27 84 -10 84 6 0
10 -6 10 -14 0 -9 7 -12 19 -9 14 3 19 0 18 -12 -1 -10 12 -25 33 -36 19 -11
36 -24 36 -29 3 -23 5 -24 13 -11 8 12 14 13 35 3 14 -6 26 -18 26 -27 0 -8 8
-15 18 -15 9 0 26 -7 36 -15 18 -14 18 -15 2 -15 -9 0 -14 -4 -11 -10 3 -5 15
-10 26 -10 47 0 124 -59 103 -79 -4 -3 -9 0 -11 7 -3 6 -14 12 -25 12 -11 0
-18 -5 -15 -12 2 -7 8 -13 13 -13 5 0 15 -4 23 -9 8 -5 16 -4 21 4 18 29 100
-19 100 -58 0 -21 74 -72 104 -72 21 0 31 -21 15 -31 -7 -4 -11 -9 -9 -11 32
-20 51 -31 85 -48 52 -25 64 -36 98 -87 18 -29 34 -43 50 -43 12 0 29 -5 37
-10 12 -8 10 -10 -9 -10 -20 0 -22 -3 -13 -12 10 -10 17 -10 32 0 11 6 29 12
41 12 11 0 29 10 40 23 13 15 21 19 26 10 6 -8 22 -9 58 -2 28 5 61 7 74 4 29
-7 71 19 71 44 0 26 29 49 39 32 6 -9 10 -8 15 5 4 11 2 20 -3 22 -6 2 -11 15
-11 28 0 33 18 21 28 -19 5 -19 16 -33 26 -35 16 -3 18 1 12 22 -4 15 -2 26 4
26 6 0 18 16 27 35 9 19 20 35 24 35 4 0 15 -20 25 -44 10 -24 22 -42 26 -39
5 2 6 8 3 13 -3 5 1 23 10 39 18 37 19 41 1 41 -9 0 -15 18 -19 55 -5 50 -3
58 19 80 20 20 35 25 75 25 42 0 52 3 56 20 5 17 14 20 70 20 56 0 66 3 70 20
4 14 14 20 32 20 15 0 31 8 39 20 10 16 23 20 72 20 49 0 62 4 72 20 7 11 18
20 25 20 7 0 17 8 23 18 10 15 11 14 6 -6 -3 -18 -1 -22 11 -18 8 3 23 6 34 6
11 0 19 7 19 18 0 15 2 15 10 2 9 -13 15 -10 38 18 29 35 42 40 42 17 0 -22
86 -21 94 2 4 9 1 20 -6 26 -8 5 8 7 43 4 49 -5 56 -3 65 16 7 18 19 23 67 25
42 2 57 7 57 17 0 12 -14 15 -61 15 -52 0 -60 2 -55 16 3 9 6 18 6 20 0 2 7 4
15 4 8 0 15 9 15 20 0 12 7 20 16 20 9 0 27 9 41 20 33 26 183 30 183 5 0 -8
3 -15 7 -15 10 0 73 71 73 83 0 7 4 7 12 -1 14 -14 108 -16 108 -2 0 6 9 10
20 10 11 0 20 5 20 10 0 6 14 10 30 10 23 0 30 -4 30 -20 0 -17 -7 -20 -41
-20 -36 0 -40 -2 -29 -15 14 -17 90 -21 90 -4 0 6 10 9 23 6 12 -3 31 -1 42 3
18 8 19 9 1 9 -17 1 -17 3 -2 25 9 14 14 31 11 38 -4 10 12 13 66 15 39 1 78
4 87 8 16 6 16 7 -1 16 -28 16 -11 27 35 23 261 -20 309 -28 324 -48 12 -18
16 -19 24 -6 7 11 25 14 67 13 32 -1 99 -2 150 -3 51 0 95 -4 98 -10 3 -5 28
-6 56 -3 38 4 53 2 60 -8 7 -12 11 -11 26 4 16 16 16 17 -5 17 -15 0 -22 6
-22 20 0 17 7 20 40 20 29 0 40 -4 40 -15 0 -11 11 -15 40 -15 30 0 40 4 40
16 0 13 9 15 45 12 41 -3 45 -1 45 19 0 13 6 23 13 23 7 0 18 9 25 20 14 24
32 26 32 5 0 -8 7 -15 15 -15 9 0 18 7 21 15 4 10 20 15 45 15 32 0 39 -3 39
-20 0 -15 -7 -20 -28 -20 -20 0 -33 -7 -42 -25 -7 -14 -22 -25 -32 -25 -10 0
-18 -6 -18 -12 -1 -7 -6 -3 -13 10 -7 12 -16 19 -20 16 -14 -14 -7 -44 15 -64
18 -16 35 -20 95 -20 58 0 73 3 73 15 0 11 11 15 41 15 36 0 47 6 85 45 39 41
47 45 89 45 l47 0 -5 -37 c-2 -21 -2 -30 0 -20 3 11 14 17 32 17 22 0 29 -6
38 -32 5 -18 8 -22 6 -9 -11 67 -13 85 -7 74 3 -7 12 -13 19 -13 18 0 47 -59
39 -82 -3 -10 -9 -18 -14 -18 -5 0 -11 -9 -15 -19 -3 -11 -14 -22 -23 -24 -9
-3 4 -5 29 -6 41 -1 46 1 45 21 -1 20 6 24 49 29 28 4 70 14 94 23 56 20 61
20 61 -4 0 -11 9 -28 20 -37 32 -28 25 -43 -20 -43 -29 0 -40 -4 -40 -15 0
-13 23 -14 170 -9 185 7 204 3 195 -42 -3 -13 -7 -36 -10 -51 l-6 -28 20 32
c11 17 27 30 37 30 9 -1 19 4 21 11 3 6 -2 12 -11 12 -23 0 -20 28 4 35 12 4
31 0 45 -9 55 -36 55 -37 55 219 l0 235 -3100 0 -3100 0 0 -874z m5120 724 c0
-5 7 -10 16 -10 31 0 10 -35 -24 -38 -28 -3 -32 0 -32 21 0 13 3 27 7 30 10
11 33 8 33 -3z m-233 -62 c-3 -8 -6 -5 -6 6 -1 11 2 17 5 13 3 -3 4 -12 1 -19z
m439 -15 c-10 -10 -19 5 -10 18 6 11 8 11 12 0 2 -7 1 -15 -2 -18z m-543 -10
c-13 -2 -33 -2 -45 0 -13 2 -3 4 22 4 25 0 35 -2 23 -4z m-303 -13 c0 -5 -4
-10 -10 -10 -5 0 -10 5 -10 10 0 6 5 10 10 10 6 0 10 -4 10 -10z m-60 -64 c0
-3 -9 -6 -20 -6 -22 0 -23 1 -14 24 5 13 8 13 20 1 8 -7 14 -16 14 -19z m1243
-3 c-13 -2 -33 -2 -45 0 -13 2 -3 4 22 4 25 0 35 -2 23 -4z m-2023 -64 c0 -10
-6 -19 -14 -19 -15 0 -29 27 -21 40 9 15 35 -1 35 -21z m2200 -14 c0 -27 -4
-35 -17 -35 -23 1 -64 30 -42 30 8 0 20 9 27 20 19 30 32 24 32 -15z m-2897
-162 c-13 -2 -33 -2 -45 0 -13 2 -3 4 22 4 25 0 35 -2 23 -4z m-2253 -43 c0
-5 -4 -10 -9 -10 -6 0 -13 5 -16 10 -3 6 1 10 9 10 9 0 16 -4 16 -10z m2000
-55 c0 -8 -4 -15 -10 -15 -5 0 -10 7 -10 15 0 8 5 15 10 15 6 0 10 -7 10 -15z
m-1870 -295 c0 -5 -7 -10 -16 -10 -8 0 -12 5 -9 10 3 6 10 10 16 10 5 0 9 -4
9 -10z m1260 -31 c0 -24 -23 -21 -28 4 -2 10 3 17 12 17 10 0 16 -9 16 -21z
m-373 -225 c-3 -3 -12 -4 -19 -1 -8 3 -5 6 6 6 11 1 17 -2 13 -5z m133 -9 c0
-13 -4 -14 -20 -5 -11 6 -20 13 -20 15 0 3 9 5 20 5 11 0 20 -7 20 -15z m-870
-55 c12 -8 9 -10 -13 -10 -16 0 -26 4 -22 10 8 12 16 12 35 0z m-220 -120 c0
-13 -41 -22 -81 -17 -31 3 -30 4 9 5 23 1 42 7 42 12 0 6 7 10 15 10 8 0 15
-4 15 -10z"/>
<path d="M4305 4320 c3 -5 8 -10 11 -10 2 0 4 5 4 10 0 6 -5 10 -11 10 -5 0
-7 -4 -4 -10z"/>
<path d="M4845 4320 c27 -12 35 -12 35 0 0 6 -12 10 -27 9 -25 0 -26 -1 -8 -9z"/>
<path d="M5257 4305 c6 -29 28 -49 43 -40 17 10 11 44 -9 55 -30 16 -39 12
-34 -15z"/>
<path d="M5680 4260 c0 -5 5 -10 11 -10 5 0 7 5 4 10 -3 6 -8 10 -11 10 -2 0
-4 -4 -4 -10z"/>
<path d="M3703 4238 c2 -7 10 -13 17 -13 7 0 15 6 18 13 2 7 -5 12 -18 12 -13
0 -20 -5 -17 -12z"/>
<path d="M5278 4243 c7 -3 16 -2 19 1 4 3 -2 6 -13 5 -11 0 -14 -3 -6 -6z"/>
<path d="M3360 4180 c0 -28 2 -30 20 -20 11 6 35 8 54 5 32 -6 33 -5 29 19 -5
24 -10 26 -54 26 -48 0 -49 -1 -49 -30z"/>
<path d="M3180 4166 c0 -2 7 -9 15 -16 12 -10 15 -10 15 4 0 9 -7 16 -15 16
-8 0 -15 -2 -15 -4z"/>
<path d="M3271 4154 c0 -11 3 -14 6 -6 3 7 2 16 -1 19 -3 4 -6 -2 -5 -13z"/>
<path d="M3360 4120 c0 -5 5 -10 11 -10 5 0 7 5 4 10 -3 6 -8 10 -11 10 -2 0
-4 -4 -4 -10z"/>
<path d="M6083 4083 c15 -2 39 -2 55 0 15 2 2 4 -28 4 -30 0 -43 -2 -27 -4z"/>
<path d="M2920 4000 c0 -5 5 -10 10 -10 6 0 10 5 10 10 0 6 -4 10 -10 10 -5 0
-10 -4 -10 -10z"/>
<path d="M1150 3540 c0 -5 5 -10 10 -10 6 0 10 5 10 10 0 6 -4 10 -10 10 -5 0
-10 -4 -10 -10z"/>
<path d="M4219 2930 c-15 -11 -37 -45 -49 -75 -22 -54 -22 -58 -6 -107 9 -28
16 -56 16 -63 0 -8 6 -20 13 -27 30 -32 51 -86 41 -108 -9 -19 -18 -22 -104
-24 -52 -1 -105 -8 -117 -14 -12 -7 -31 -12 -43 -12 -11 0 -23 -7 -26 -15 -5
-12 -10 -13 -20 -5 -7 6 -27 9 -45 6 -20 -3 -41 1 -56 11 -21 14 -27 14 -49 2
-23 -12 -27 -11 -36 4 -5 11 -19 17 -31 16 -46 -5 -106 13 -135 40 -20 20 -44
30 -79 35 -84 11 -178 49 -207 83 -18 21 -37 32 -66 36 -59 8 -75 0 -119 -57
-28 -35 -59 -61 -103 -84 -35 -18 -66 -32 -70 -32 -7 0 -220 -103 -248 -121
-30 -18 -126 -57 -155 -64 -16 -3 -48 -10 -70 -15 -24 -5 -44 -5 -49 1 -6 6
-3 9 7 9 14 0 16 4 9 18 -5 9 -13 46 -16 81 -12 106 -76 209 -142 231 -83 28
-209 -14 -240 -80 -38 -80 -54 -119 -54 -132 0 -23 -58 -72 -88 -74 -15 -1
-30 -3 -34 -3 -18 -2 -6 -21 13 -21 15 0 19 -5 15 -15 -3 -8 0 -15 7 -15 8 0
8 -3 -2 -9 -8 -5 -15 -35 -18 -77 -5 -53 -11 -76 -30 -98 -16 -19 -23 -37 -19
-50 3 -12 12 -49 20 -84 16 -69 19 -34 -39 -453 l-27 -197 25 -40 c49 -77 120
-109 76 -34 -11 20 -14 29 -6 19 14 -17 16 -17 25 -1 9 16 10 16 15 -2 3 -10
11 -80 17 -154 12 -131 10 -192 -10 -450 -5 -69 -10 -133 -10 -142 0 -11 -5
-15 -14 -12 -9 3 -16 -5 -21 -23 l-7 -28 -12 23 c-7 12 -16 19 -20 15 -5 -4
-6 2 -3 15 6 24 -3 28 -21 10 -10 -10 -14 -8 -19 10 -7 29 -37 25 -41 -6 -5
-36 -19 -25 -31 26 -8 38 -10 40 -6 9 2 -24 0 -37 -8 -37 -7 0 -6 -4 3 -10 8
-5 10 -10 4 -10 -7 0 -14 -10 -18 -22 -5 -20 -8 -21 -17 -8 -8 12 -9 11 -4 -6
4 -14 0 -24 -10 -28 -9 -3 -15 0 -15 9 0 8 -7 15 -15 15 -8 0 -15 -4 -15 -10
0 -20 -28 -10 -35 12 -6 20 -8 20 -12 6 -2 -10 -8 -18 -13 -18 -20 0 -40 13
-40 27 0 8 -4 11 -10 8 -6 -4 -10 6 -10 23 0 23 -4 28 -22 28 -13 -1 -26 -9
-30 -18 -7 -17 -18 -17 -51 -3 -14 6 -15 10 -6 22 7 7 18 12 26 9 7 -3 13 -1
13 3 0 5 -5 11 -11 13 -9 3 -9 10 1 27 11 21 10 23 -4 18 -13 -5 -16 -3 -12
11 4 11 -2 23 -14 32 -11 8 -20 20 -20 28 0 10 -3 10 -14 0 -8 -7 -12 -16 -10
-20 2 -3 -4 -9 -13 -11 -11 -3 -8 -5 10 -6 23 -1 27 -5 27 -30 0 -28 -1 -29
-45 -26 -25 2 -45 2 -45 0 0 -16 26 -55 39 -58 10 -3 8 -5 -6 -6 -13 0 -23 -5
-23 -11 0 -5 7 -7 15 -4 17 7 21 -21 5 -31 -6 -3 -10 -1 -10 5 0 6 -5 8 -11 4
-6 -3 -15 0 -20 7 -6 9 -9 10 -9 2 0 -6 -7 -19 -16 -28 -14 -13 -19 -14 -25
-3 -7 10 -9 9 -9 -4 0 -9 6 -18 13 -21 6 -2 8 -8 4 -13 -5 -5 -16 1 -27 13 -9
12 -20 19 -24 16 -3 -4 -6 2 -6 13 -1 18 -1 18 -14 2 -15 -20 -26 -14 -26 14
0 10 -5 18 -11 18 -6 0 -8 -9 -4 -20 4 -12 2 -20 -5 -20 -6 0 -10 -7 -8 -16 2
-13 -6 -17 -34 -18 -22 0 -40 4 -43 12 -8 20 -28 14 -22 -8 6 -22 -8 -28 -17
-7 -3 6 -3 2 0 -10 12 -51 -22 -16 -40 40 -7 21 -26 14 -26 -9 0 -8 4 -13 9
-9 12 7 26 -34 16 -43 -4 -4 -10 -2 -12 5 -2 7 -11 9 -20 6 -11 -4 -14 -2 -9
5 4 7 0 19 -8 28 -9 8 -16 21 -16 28 0 8 -7 19 -15 26 -13 11 -15 6 -15 -32 0
-33 -4 -45 -15 -45 -8 0 -15 4 -15 9 0 5 -12 0 -27 -12 l-28 -22 -3 21 c-2 12
-8 21 -13 21 -5 0 -9 10 -9 22 0 29 -9 18 -12 -15 -3 -30 -18 -37 -19 -9 0 10
-3 12 -6 5 -6 -16 -44 -17 -40 -2 1 6 -4 14 -12 17 -10 3 -13 -1 -8 -17 3 -11
1 -21 -4 -21 -5 0 -9 5 -9 11 0 5 -5 7 -12 3 -7 -5 -5 -11 7 -21 17 -11 17
-13 2 -13 -19 0 -52 44 -43 59 4 5 2 12 -4 16 -5 3 -10 -2 -10 -12 0 -15 -2
-16 -10 -3 -8 13 -10 13 -10 -2 0 -10 9 -22 21 -28 27 -15 16 -25 -27 -25 -34
0 -37 3 -35 40 1 19 0 19 -15 -2 -9 -13 -22 -19 -31 -16 -12 5 -12 7 -1 14 10
7 8 9 -6 9 -15 0 -17 5 -12 28 5 27 5 27 -9 -3 -11 -24 -14 -26 -16 -10 -1 11
-1 23 0 27 0 4 3 26 6 50 l5 43 -16 -50 c-8 -27 -20 -61 -25 -75 -10 -24 -11
-24 -25 -5 -8 10 -14 36 -14 56 0 21 -4 41 -10 44 -6 4 -10 -10 -10 -34 0 -24
-5 -41 -11 -41 -7 0 -17 -7 -24 -16 -19 -26 -55 -9 -55 26 0 16 -4 32 -10 35
-6 4 -10 -8 -10 -29 0 -20 -5 -36 -11 -36 -5 0 -8 -4 -5 -9 3 -5 -1 -12 -10
-15 -17 -6 -16 4 2 48 6 16 4 18 -9 13 -9 -3 -17 -2 -17 3 0 6 -7 10 -15 10
-9 0 -15 -9 -15 -22 0 -28 -16 -13 -25 24 -5 21 -3 27 14 33 12 3 21 11 21 17
0 6 -6 6 -15 -2 -13 -10 -15 -9 -15 9 0 18 -4 21 -31 16 -22 -4 -28 -2 -23 6
5 9 2 10 -9 6 -9 -3 -19 -2 -22 3 -21 34 -25 -16 -25 -315 l0 -325 3100 0
3100 0 0 245 c-1 216 -7 277 -23 233 -2 -7 -8 -10 -12 -6 -4 4 -3 21 3 37 6
17 7 31 3 31 -5 0 -12 -12 -15 -27 -11 -45 -28 -83 -37 -83 -5 0 -9 7 -9 15 0
8 -5 15 -11 15 -6 0 -9 -7 -5 -15 3 -9 0 -15 -9 -15 -22 0 -65 22 -59 31 2 4
-10 4 -28 -1 -17 -6 -35 -15 -39 -21 -5 -8 -8 -8 -13 0 -4 6 -12 9 -17 6 -5
-4 -9 4 -9 17 0 14 -3 19 -8 11 -10 -16 -53 -13 -74 5 -10 8 -18 28 -18 44 0
15 -4 28 -10 28 -5 0 -10 -13 -10 -30 0 -31 -17 -39 -38 -18 -9 9 -12 9 -12 0
0 -7 -4 -12 -10 -12 -5 0 -10 12 -10 28 -1 24 -2 25 -11 9 -10 -18 -11 -18
-26 0 -11 14 -14 14 -10 2 3 -9 1 -22 -4 -30 -7 -12 -9 -11 -9 2 0 9 -9 24
-20 34 -19 18 -20 17 -20 -1 0 -11 5 -25 10 -30 7 -7 7 -19 1 -35 -6 -15 -10
-18 -10 -8 -1 9 -8 22 -17 29 -12 11 -15 11 -12 -1 2 -9 -4 -13 -15 -11 -10 2
-24 -2 -31 -7 -10 -8 -16 -4 -25 16 -11 25 -14 26 -23 10 -8 -14 -13 -16 -24
-6 -11 9 -17 9 -28 0 -11 -9 -15 -9 -19 1 -4 10 -7 10 -15 -1 -6 -8 -19 -12
-31 -8 -12 3 -21 1 -21 -4 0 -5 -7 -9 -15 -9 -8 0 -15 7 -15 15 0 22 -31 18
-37 -5 -6 -22 -18 -26 -29 -8 -5 7 -3 8 6 3 9 -5 11 -4 6 3 -4 7 -14 12 -22
12 -8 0 -24 21 -35 46 -25 56 -35 53 -14 -5 10 -28 11 -39 3 -35 -16 10 -58
12 -58 2 0 -4 8 -12 18 -17 16 -10 16 -10 0 -11 -9 0 -19 4 -22 9 -8 12 -77
-12 -72 -24 6 -16 -35 -12 -71 7 -20 10 -35 13 -39 7 -8 -13 -34 9 -34 28 0 8
-5 11 -10 8 -6 -4 -8 -11 -5 -16 4 -5 1 -9 -5 -9 -7 0 -10 6 -7 14 11 29 -7
25 -19 -4 -13 -31 -56 -56 -63 -38 -2 6 3 15 10 20 11 7 11 11 2 15 -7 2 -13
17 -13 33 0 16 -4 50 -10 77 -29 141 -64 400 -66 483 -1 53 -10 136 -19 185
-9 50 -19 128 -21 175 -2 47 -6 103 -9 125 -4 33 -6 243 -2 295 0 8 -3 41 -7
73 l-8 59 39 -39 c21 -21 44 -51 50 -66 7 -15 33 -49 58 -76 36 -38 45 -55 45
-84 0 -20 5 -48 11 -64 5 -15 11 -42 13 -60 3 -37 3 -38 34 -48 18 -5 30 0 55
27 29 31 32 41 33 99 0 35 4 83 9 106 7 40 6 43 -37 86 -39 38 -44 48 -40 78
3 27 -9 59 -51 144 -30 61 -78 171 -107 245 -28 74 -57 146 -64 160 -18 38
-71 59 -152 60 -67 0 -71 2 -93 31 -17 23 -29 30 -47 26 -20 -4 -24 0 -24 22
0 15 9 34 20 44 17 14 20 29 20 95 0 101 -23 141 -90 159 -69 18 -121 15 -151
-7z m-982 -352 c23 -16 33 -31 33 -49 0 -21 7 -30 33 -40 17 -7 37 -20 44 -29
21 -29 117 -99 189 -137 83 -44 351 -153 376 -153 13 0 21 -14 31 -52 20 -76
37 -169 37 -207 0 -17 7 -62 15 -99 9 -37 19 -109 23 -161 l7 -94 32 -11 c17
-6 34 -14 38 -17 3 -4 15 -65 26 -135 11 -71 26 -152 34 -181 8 -28 15 -89 15
-136 0 -70 4 -92 24 -130 22 -41 26 -67 37 -237 13 -210 9 -233 -34 -192 -20
19 -72 34 -54 16 9 -9 -19 -34 -37 -34 -9 0 -16 3 -16 8 0 4 -15 7 -32 7 -21
0 -32 5 -30 13 1 6 -2 12 -8 12 -5 0 -10 -4 -10 -10 0 -5 -7 -6 -17 -3 -12 5
-14 3 -8 -8 5 -8 -2 -5 -15 6 -24 21 -20 5 8 -27 14 -17 13 -18 -11 -18 -15 0
-27 6 -27 13 0 8 -4 7 -10 -3 -5 -8 -7 -24 -5 -35 3 -11 2 -14 -1 -7 -3 6 -13
12 -21 12 -10 0 -13 6 -9 16 3 8 2 12 -4 9 -21 -13 -15 340 7 392 8 20 13 50
12 67 -2 17 1 37 5 45 5 7 4 30 -2 50 -15 50 -32 139 -32 162 0 11 7 19 18 19
26 1 49 40 62 106 8 42 8 66 1 84 -16 38 -64 102 -86 114 -10 6 -27 21 -37 33
-12 14 -35 23 -67 28 l-48 7 18 49 c22 56 24 107 6 130 -20 27 -77 51 -123 52
-34 0 -47 -5 -63 -24 -31 -37 -70 -153 -73 -215 -2 -38 -8 -60 -20 -71 -10 -9
-18 -24 -18 -34 0 -10 -18 -47 -41 -83 -34 -55 -40 -70 -34 -97 18 -83 57
-136 107 -146 29 -6 30 -7 24 -47 -4 -23 -10 -60 -13 -84 -3 -23 -9 -42 -14
-42 -5 0 -5 -10 0 -22 4 -13 11 -44 15 -70 4 -26 11 -50 15 -53 5 -2 6 -45 3
-94 -3 -54 0 -109 7 -137 14 -56 6 -124 -15 -124 -16 0 -19 26 -4 35 6 3 10
16 9 28 0 15 -2 17 -6 7 -7 -18 -29 -40 -39 -40 -4 0 -13 8 -20 18 -9 11 -13
13 -14 4 0 -13 -24 -42 -34 -42 -3 0 -6 7 -6 16 0 13 -3 14 -14 5 -11 -9 -15
-6 -21 16 l-7 28 -19 -25 c-10 -14 -19 -31 -19 -37 0 -7 -4 -13 -10 -13 -5 0
-10 6 -11 13 0 6 -4 3 -9 -8 -7 -17 -9 -17 -9 -3 -1 10 -14 24 -31 33 -31 16
-55 49 -45 64 3 5 7 37 9 71 3 54 0 66 -21 91 -14 16 -37 36 -53 45 -16 10
-28 26 -28 38 -1 35 -21 141 -31 168 -14 36 -58 68 -95 68 -38 0 -80 -38 -97
-90 -7 -19 -21 -47 -32 -61 -23 -32 -19 -61 11 -74 29 -13 31 -55 2 -55 -10 0
-27 -12 -37 -26 -10 -15 -39 -48 -65 -75 -41 -40 -47 -51 -42 -76 5 -25 2 -32
-23 -44 -15 -8 -28 -21 -28 -29 1 -8 -8 -23 -18 -34 -15 -14 -21 -16 -27 -6
-4 7 -13 9 -19 6 -6 -4 -11 0 -11 8 0 9 -5 16 -11 16 -6 0 -8 -7 -4 -17 5 -15
4 -16 -6 -6 -17 17 -29 16 -29 -2 0 -23 -17 -18 -24 7 -4 18 -8 20 -18 10 -19
-19 -29 -14 -16 9 10 17 10 23 1 26 -7 3 -13 12 -14 21 0 12 -3 11 -9 -5 -11
-28 -40 -20 -41 11 0 19 -8 138 -25 361 -3 51 0 123 11 200 9 66 21 156 26
199 5 44 11 82 14 85 4 3 30 13 58 22 l52 15 -2 67 c-1 70 -53 247 -100 341
-26 52 -26 70 4 194 18 71 32 86 147 146 38 20 81 45 97 56 15 11 45 28 66 38
33 15 209 127 223 142 3 3 30 21 62 39 33 20 54 39 51 47 -2 7 8 19 24 28 16
8 35 22 42 30 18 21 29 20 68 -6z m1258 -1413 c66 -214 87 -325 103 -555 6
-89 5 -118 -5 -128 -11 -11 -13 -11 -13 0 0 8 -3 9 -8 2 -12 -18 -41 -24 -54
-10 -8 7 -23 18 -35 25 -44 23 -61 114 -67 362 -3 123 -9 292 -12 375 -4 83
-3 169 1 190 7 38 8 37 32 -56 13 -52 40 -144 58 -205z m-2306 -100 c1 -55 7
-123 14 -151 9 -33 13 -112 13 -225 l-1 -174 -44 0 c-41 0 -45 2 -53 30 -10
34 -5 356 6 373 3 6 11 86 16 179 5 92 13 191 17 218 7 50 7 49 19 -50 7 -55
13 -145 13 -200z m1533 -423 c9 -62 9 -75 -3 -84 -11 -7 -11 -11 -1 -15 6 -2
12 -17 12 -31 l0 -26 -22 22 c-21 21 -23 31 -22 127 2 105 14 173 21 110 2
-16 8 -63 15 -103z m-2362 -38 c0 -2 -7 -4 -15 -4 -8 0 -15 4 -15 10 0 5 7 7
15 4 8 -4 15 -8 15 -10z m2084 -120 c3 -8 2 -12 -4 -9 -6 3 -10 10 -10 16 0
14 7 11 14 -7z"/>
<path d="M2804 806 c-10 -25 0 -38 13 -17 8 13 9 22 3 26 -6 4 -13 -1 -16 -9z"/>
<path d="M2490 610 c0 -5 5 -10 11 -10 5 0 7 5 4 10 -3 6 -8 10 -11 10 -2 0
-4 -4 -4 -10z"/>
<path d="M2670 591 c0 -6 5 -13 10 -16 6 -3 10 1 10 9 0 9 -4 16 -10 16 -5 0
-10 -4 -10 -9z"/>
<path d="M2520 569 c0 -5 5 -7 10 -4 6 3 10 8 10 11 0 2 -4 4 -10 4 -5 0 -10
-5 -10 -11z"/>
<path d="M4100 564 c0 -6 7 -19 15 -30 8 -10 14 -14 14 -9 0 6 -6 19 -14 29
-8 11 -15 15 -15 10z"/>
<path d="M1374 739 c-6 -11 19 -22 40 -17 11 2 9 6 -9 15 -15 6 -27 7 -31 2z"/>
<path d="M731 664 c0 -11 3 -14 6 -6 3 7 2 16 -1 19 -3 4 -6 -2 -5 -13z"/>
<path d="M910 610 c0 -5 5 -10 10 -10 6 0 10 5 10 10 0 6 -4 10 -10 10 -5 0
-10 -4 -10 -10z"/>
<path d="M941 604 c0 -11 3 -14 6 -6 3 7 2 16 -1 19 -3 4 -6 -2 -5 -13z"/>
<path d="M440 568 c0 -19 2 -20 10 -8 13 19 13 30 0 30 -5 0 -10 -10 -10 -22z"/>
<path d="M896 571 c-4 -7 -5 -15 -2 -18 9 -9 19 4 14 18 -4 11 -6 11 -12 0z"/>
<path d="M5330 560 c0 -5 5 -10 11 -10 5 0 7 5 4 10 -3 6 -8 10 -11 10 -2 0
-4 -4 -4 -10z"/>
<path d="M1011 524 c0 -11 3 -14 6 -6 3 7 2 16 -1 19 -3 4 -6 -2 -5 -13z"/>
<path d="M645 520 c3 -5 8 -10 11 -10 2 0 4 5 4 10 0 6 -5 10 -11 10 -5 0 -7
-4 -4 -10z"/>
<path d="M675 520 c3 -5 8 -10 11 -10 2 0 4 5 4 10 0 6 -5 10 -11 10 -5 0 -7
-4 -4 -10z"/>
<path d="M1060 520 c0 -5 5 -10 10 -10 6 0 10 5 10 10 0 6 -4 10 -10 10 -5 0
-10 -4 -10 -10z"/>
<path d="M5283 513 c9 -9 20 -13 24 -9 4 4 1 11 -7 16 -25 16 -35 11 -17 -7z"/>
</g>
</svg>
